# xmcd
#
# Track frame offsets:
#	150
#	13527
#	32451
#	43248
#	55214
#	67945
#	80430
#	93458
#	104536
#	117742
#
# Disc length: 1726
#
# Revision: 2
# Processed by: cddbd v1.5.1PL0 Copyright (c) Steve Scherf et al.
# Submitted via: dBpowerAMP V4.0
# Normalized: r0:TDELIM( - ),TSWAP
#
DISCID=8006bc0a
DTITLE=Blues artists - The Universal Collection vol I
DYEAR=2000
DGENRE=Blues
TTITLE0=John Lee Hooker - One bourbon, one scotch, one beer
TTITLE1=Muddy Waters - I´ve got my mojo working
TTITLE2=BB King - Recesion Blues
TTITLE3=Little Walter - My baby
TTITLE4=Muddy Waters - I´m your cootchie man
TTITLE5=Sonny Boy Williamson - 99
TTITLE6=Howling Wolf - Baby how long
TTITLE7=John Lee Hooker - Please Don´t Go
TTITLE8=Laura Lee - Dirty Man
TTITLE9=Koko Taylor - I´m a little missed up
EXTD=
EXTT0=
EXTT1=
EXTT2=
EXTT3=
EXTT4=
EXTT5=
EXTT6=
EXTT7=
EXTT8=
EXTT9=
PLAYORDER=
